<?xml version="1.0" encoding="UTF-8" standalone="no"?>
<!-- Created with Inkscape (http://www.inkscape.org/) -->
<svg
   xmlns:dc="http://purl.org/dc/elements/1.1/"
   xmlns:cc="http://web.resource.org/cc/"
   xmlns:rdf="http://www.w3.org/1999/02/22-rdf-syntax-ns#"
   xmlns:svg="http://www.w3.org/2000/svg"
   xmlns="http://www.w3.org/2000/svg"
   xmlns:sodipodi="http://sodipodi.sourceforge.net/DTD/sodipodi-0.dtd"
   xmlns:inkscape="http://www.inkscape.org/namespaces/inkscape"
   width="340"
   height="340"
   id="svg3608"
   sodipodi:version="0.32"
   inkscape:version="0.45"
   version="1.0"
   sodipodi:docbase="Z:\Projekte\Unisens\Logo"
   sodipodi:docname="Logo.svg"
   inkscape:output_extension="org.inkscape.output.svg.inkscape"
   inkscape:export-filename="Z:\Projekte\Unisens\Logo\Logo_250px.png"
   inkscape:export-xdpi="66.18"
   inkscape:export-ydpi="66.18"
   sodipodi:modified="TRUE">
  <defs
     id="defs3610" />
  <sodipodi:namedview
     id="base"
     pagecolor="#ffffff"
     bordercolor="#666666"
     borderopacity="1.0"
     inkscape:pageopacity="0.0"
     inkscape:pageshadow="2"
     inkscape:zoom="0.98994949"
     inkscape:cx="49.737277"
     inkscape:cy="61.277732"
     inkscape:document-units="px"
     inkscape:current-layer="layer1"
     showguides="true"
     inkscape:guide-bbox="true"
     inkscape:window-width="1112"
     inkscape:window-height="995"
     inkscape:window-x="0"
     inkscape:window-y="0">
    <sodipodi:guide
       orientation="vertical"
       position="755.5941"
       id="guide3668" />
  </sodipodi:namedview>
  <metadata
     id="metadata3613">
    <rdf:RDF>
      <cc:Work
         rdf:about="">
        <dc:format>image/svg+xml</dc:format>
        <dc:type
           rdf:resource="http://purl.org/dc/dcmitype/StillImage" />
      </cc:Work>
    </rdf:RDF>
  </metadata>
  <g
     inkscape:label="Ebene 1"
     inkscape:groupmode="layer"
     id="layer1"
     transform="translate(-198.39287,-189.96039)">
    <rect
       style="opacity:1;fill:#ffffff;fill-opacity:1;fill-rule:evenodd;stroke:none;stroke-width:6;stroke-linecap:round;stroke-linejoin:miter;stroke-miterlimit:4;stroke-dasharray:none;stroke-dashoffset:0;stroke-opacity:1"
       id="rect4701"
       width="340"
       height="340"
       x="198.39287"
       y="189.96039"
       inkscape:export-filename="Z:\Projekte\Unisens\Logo\Logo_v2.png"
       inkscape:export-xdpi="66.18"
       inkscape:export-ydpi="66.18" />
    <g
       id="g4596"
       transform="translate(228.22283,556.64288)"
       inkscape:export-filename="Z:\Projekte\Unisens\Logo\Logo_v2.png"
       inkscape:export-xdpi="66.18"
       inkscape:export-ydpi="66.18">
      <path
         inkscape:export-ydpi="4.4899998"
         inkscape:export-xdpi="4.4899998"
         inkscape:export-filename="Z:\Eigene Bilder\Unisens_16px.png"
         id="path4598"
         d="M 160,-37.13782 L 160,-357.13781"
         style="fill:none;fill-rule:evenodd;stroke:#e6e6e6;stroke-width:1px;stroke-linecap:butt;stroke-linejoin:miter;stroke-opacity:1" />
      <path
         inkscape:export-ydpi="4.4899998"
         inkscape:export-xdpi="4.4899998"
         inkscape:export-filename="Z:\Eigene Bilder\Unisens_16px.png"
         id="path4600"
         d="M 180,-37.13782 L 180,-357.13781"
         style="fill:none;fill-rule:evenodd;stroke:#e6e6e6;stroke-width:1px;stroke-linecap:butt;stroke-linejoin:miter;stroke-opacity:1" />
      <path
         inkscape:export-ydpi="4.4899998"
         inkscape:export-xdpi="4.4899998"
         inkscape:export-filename="Z:\Eigene Bilder\Unisens_16px.png"
         id="path4602"
         d="M 200,-37.13783 L 200,-357.13782"
         style="fill:none;fill-rule:evenodd;stroke:#e6e6e6;stroke-width:1px;stroke-linecap:butt;stroke-linejoin:miter;stroke-opacity:1" />
      <path
         inkscape:export-ydpi="4.4899998"
         inkscape:export-xdpi="4.4899998"
         inkscape:export-filename="Z:\Eigene Bilder\Unisens_16px.png"
         id="path4604"
         d="M 220,-37.13783 L 220,-357.13782"
         style="fill:none;fill-rule:evenodd;stroke:#e6e6e6;stroke-width:1px;stroke-linecap:butt;stroke-linejoin:miter;stroke-opacity:1" />
      <path
         inkscape:export-ydpi="4.4899998"
         inkscape:export-xdpi="4.4899998"
         inkscape:export-filename="Z:\Eigene Bilder\Unisens_16px.png"
         id="path4606"
         d="M 260,-37.13783 L 260,-357.13782"
         style="fill:none;fill-rule:evenodd;stroke:#e6e6e6;stroke-width:1px;stroke-linecap:butt;stroke-linejoin:miter;stroke-opacity:1" />
      <path
         inkscape:export-ydpi="4.4899998"
         inkscape:export-xdpi="4.4899998"
         inkscape:export-filename="Z:\Eigene Bilder\Unisens_16px.png"
         id="path4608"
         d="M 280,-37.13783 L 280,-357.13782"
         style="fill:none;fill-rule:evenodd;stroke:#e6e6e6;stroke-width:1px;stroke-linecap:butt;stroke-linejoin:miter;stroke-opacity:1" />
      <path
         inkscape:export-ydpi="4.4899998"
         inkscape:export-xdpi="4.4899998"
         inkscape:export-filename="Z:\Eigene Bilder\Unisens_16px.png"
         id="path4610"
         d="M 150,-37.13783 L 150,-357.13782"
         style="fill:none;fill-rule:evenodd;stroke:#e6e6e6;stroke-width:1px;stroke-linecap:butt;stroke-linejoin:miter;stroke-opacity:1" />
      <path
         inkscape:export-ydpi="4.4899998"
         inkscape:export-xdpi="4.4899998"
         inkscape:export-filename="Z:\Eigene Bilder\Unisens_16px.png"
         id="path4612"
         d="M 170,-37.13782 L 170,-357.13781"
         style="fill:none;fill-rule:evenodd;stroke:#e6e6e6;stroke-width:1px;stroke-linecap:butt;stroke-linejoin:miter;stroke-opacity:1" />
      <path
         inkscape:export-ydpi="4.4899998"
         inkscape:export-xdpi="4.4899998"
         inkscape:export-filename="Z:\Eigene Bilder\Unisens_16px.png"
         id="path4614"
         d="M 210,-37.13783 L 210,-357.13782"
         style="fill:none;fill-rule:evenodd;stroke:#e6e6e6;stroke-width:1px;stroke-linecap:butt;stroke-linejoin:miter;stroke-opacity:1" />
      <path
         inkscape:export-ydpi="4.4899998"
         inkscape:export-xdpi="4.4899998"
         inkscape:export-filename="Z:\Eigene Bilder\Unisens_16px.png"
         id="path4616"
         d="M 230,-37.13783 L 230,-357.13782"
         style="fill:none;fill-rule:evenodd;stroke:#e6e6e6;stroke-width:1px;stroke-linecap:butt;stroke-linejoin:miter;stroke-opacity:1" />
      <path
         inkscape:export-ydpi="4.4899998"
         inkscape:export-xdpi="4.4899998"
         inkscape:export-filename="Z:\Eigene Bilder\Unisens_16px.png"
         id="path4618"
         d="M 250,-37.13783 L 250,-357.13782"
         style="fill:none;fill-rule:evenodd;stroke:#e6e6e6;stroke-width:1px;stroke-linecap:butt;stroke-linejoin:miter;stroke-opacity:1" />
      <path
         inkscape:export-ydpi="4.4899998"
         inkscape:export-xdpi="4.4899998"
         inkscape:export-filename="Z:\Eigene Bilder\Unisens_16px.png"
         id="path4620"
         d="M 270,-37.13783 L 270,-357.13782"
         style="fill:none;fill-rule:evenodd;stroke:#e6e6e6;stroke-width:1px;stroke-linecap:butt;stroke-linejoin:miter;stroke-opacity:1" />
      <path
         inkscape:export-ydpi="4.4899998"
         inkscape:export-xdpi="4.4899998"
         inkscape:export-filename="Z:\Eigene Bilder\Unisens_16px.png"
         id="path4622"
         d="M 140,-337.13782 L 299.99999,-337.13782"
         style="fill:none;fill-rule:evenodd;stroke:#e6e6e6;stroke-width:1px;stroke-linecap:butt;stroke-linejoin:miter;stroke-opacity:1" />
      <path
         inkscape:export-ydpi="4.4899998"
         inkscape:export-xdpi="4.4899998"
         inkscape:export-filename="Z:\Eigene Bilder\Unisens_16px.png"
         id="path4624"
         d="M 140,-327.13782 L 299.99999,-327.13782"
         style="fill:none;fill-rule:evenodd;stroke:#e6e6e6;stroke-width:1px;stroke-linecap:butt;stroke-linejoin:miter;stroke-opacity:1" />
      <path
         inkscape:export-ydpi="4.4899998"
         inkscape:export-xdpi="4.4899998"
         inkscape:export-filename="Z:\Eigene Bilder\Unisens_16px.png"
         id="path4626"
         d="M 140,-317.13782 L 299.99999,-317.13782"
         style="fill:none;fill-rule:evenodd;stroke:#e6e6e6;stroke-width:1px;stroke-linecap:butt;stroke-linejoin:miter;stroke-opacity:1" />
      <path
         inkscape:export-ydpi="4.4899998"
         inkscape:export-xdpi="4.4899998"
         inkscape:export-filename="Z:\Eigene Bilder\Unisens_16px.png"
         id="path4628"
         d="M 140,-307.13782 L 299.99999,-307.13782"
         style="fill:none;fill-rule:evenodd;stroke:#e6e6e6;stroke-width:1px;stroke-linecap:butt;stroke-linejoin:miter;stroke-opacity:1" />
      <path
         inkscape:export-ydpi="4.4899998"
         inkscape:export-xdpi="4.4899998"
         inkscape:export-filename="Z:\Eigene Bilder\Unisens_16px.png"
         id="path4630"
         d="M 140,-287.13782 L 299.99999,-287.13782"
         style="fill:none;fill-rule:evenodd;stroke:#e6e6e6;stroke-width:1px;stroke-linecap:butt;stroke-linejoin:miter;stroke-opacity:1" />
      <path
         inkscape:export-ydpi="4.4899998"
         inkscape:export-xdpi="4.4899998"
         inkscape:export-filename="Z:\Eigene Bilder\Unisens_16px.png"
         id="path4632"
         d="M 140,-277.13782 L 299.99999,-277.13782"
         style="fill:none;fill-rule:evenodd;stroke:#e6e6e6;stroke-width:1px;stroke-linecap:butt;stroke-linejoin:miter;stroke-opacity:1" />
      <path
         inkscape:export-ydpi="4.4899998"
         inkscape:export-xdpi="4.4899998"
         inkscape:export-filename="Z:\Eigene Bilder\Unisens_16px.png"
         id="path4634"
         d="M 140,-267.13782 L 299.99999,-267.13782"
         style="fill:none;fill-rule:evenodd;stroke:#e6e6e6;stroke-width:1px;stroke-linecap:butt;stroke-linejoin:miter;stroke-opacity:1" />
      <path
         inkscape:export-ydpi="4.4899998"
         inkscape:export-xdpi="4.4899998"
         inkscape:export-filename="Z:\Eigene Bilder\Unisens_16px.png"
         id="path4636"
         d="M 140,-257.13782 L 299.99999,-257.13782"
         style="fill:none;fill-rule:evenodd;stroke:#e6e6e6;stroke-width:1px;stroke-linecap:butt;stroke-linejoin:miter;stroke-opacity:1" />
      <path
         inkscape:export-ydpi="4.4899998"
         inkscape:export-xdpi="4.4899998"
         inkscape:export-filename="Z:\Eigene Bilder\Unisens_16px.png"
         id="path4638"
         d="M 140,-237.13782 L 299.99999,-237.13782"
         style="fill:none;fill-rule:evenodd;stroke:#e6e6e6;stroke-width:1px;stroke-linecap:butt;stroke-linejoin:miter;stroke-opacity:1" />
      <path
         inkscape:export-ydpi="4.4899998"
         inkscape:export-xdpi="4.4899998"
         inkscape:export-filename="Z:\Eigene Bilder\Unisens_16px.png"
         id="path4640"
         d="M 140,-227.13782 L 299.99999,-227.13782"
         style="fill:none;fill-rule:evenodd;stroke:#e6e6e6;stroke-width:1px;stroke-linecap:butt;stroke-linejoin:miter;stroke-opacity:1" />
      <path
         inkscape:export-ydpi="4.4899998"
         inkscape:export-xdpi="4.4899998"
         inkscape:export-filename="Z:\Eigene Bilder\Unisens_16px.png"
         id="path4642"
         d="M 140,-217.13782 L 299.99999,-217.13782"
         style="fill:none;fill-rule:evenodd;stroke:#e6e6e6;stroke-width:1px;stroke-linecap:butt;stroke-linejoin:miter;stroke-opacity:1" />
      <path
         inkscape:export-ydpi="4.4899998"
         inkscape:export-xdpi="4.4899998"
         inkscape:export-filename="Z:\Eigene Bilder\Unisens_16px.png"
         id="path4644"
         d="M 140,-207.13782 L 299.99999,-207.13782"
         style="fill:none;fill-rule:evenodd;stroke:#e6e6e6;stroke-width:1px;stroke-linecap:butt;stroke-linejoin:miter;stroke-opacity:1" />
      <path
         inkscape:export-ydpi="4.4899998"
         inkscape:export-xdpi="4.4899998"
         inkscape:export-filename="Z:\Eigene Bilder\Unisens_16px.png"
         id="path4646"
         d="M 140,-187.13782 L 299.99999,-187.13782"
         style="fill:none;fill-rule:evenodd;stroke:#e6e6e6;stroke-width:1px;stroke-linecap:butt;stroke-linejoin:miter;stroke-opacity:1" />
      <path
         inkscape:export-ydpi="4.4899998"
         inkscape:export-xdpi="4.4899998"
         inkscape:export-filename="Z:\Eigene Bilder\Unisens_16px.png"
         id="path4648"
         d="M 140,-177.13782 L 299.99999,-177.13782"
         style="fill:none;fill-rule:evenodd;stroke:#e6e6e6;stroke-width:1px;stroke-linecap:butt;stroke-linejoin:miter;stroke-opacity:1" />
      <path
         inkscape:export-ydpi="4.4899998"
         inkscape:export-xdpi="4.4899998"
         inkscape:export-filename="Z:\Eigene Bilder\Unisens_16px.png"
         id="path4650"
         d="M 140,-167.13782 L 299.99999,-167.13782"
         style="fill:none;fill-rule:evenodd;stroke:#e6e6e6;stroke-width:1px;stroke-linecap:butt;stroke-linejoin:miter;stroke-opacity:1" />
      <path
         inkscape:export-ydpi="4.4899998"
         inkscape:export-xdpi="4.4899998"
         inkscape:export-filename="Z:\Eigene Bilder\Unisens_16px.png"
         id="path4652"
         d="M 140,-157.13782 L 299.99999,-157.13782"
         style="fill:none;fill-rule:evenodd;stroke:#e6e6e6;stroke-width:1px;stroke-linecap:butt;stroke-linejoin:miter;stroke-opacity:1" />
      <path
         inkscape:export-ydpi="4.4899998"
         inkscape:export-xdpi="4.4899998"
         inkscape:export-filename="Z:\Eigene Bilder\Unisens_16px.png"
         id="path4654"
         d="M 140,-137.13782 L 299.99999,-137.13782"
         style="fill:none;fill-rule:evenodd;stroke:#e6e6e6;stroke-width:1px;stroke-linecap:butt;stroke-linejoin:miter;stroke-opacity:1" />
      <path
         inkscape:export-ydpi="4.4899998"
         inkscape:export-xdpi="4.4899998"
         inkscape:export-filename="Z:\Eigene Bilder\Unisens_16px.png"
         id="path4656"
         d="M 140,-127.13782 L 299.99999,-127.13782"
         style="fill:none;fill-rule:evenodd;stroke:#e6e6e6;stroke-width:1px;stroke-linecap:butt;stroke-linejoin:miter;stroke-opacity:1" />
      <path
         inkscape:export-ydpi="4.4899998"
         inkscape:export-xdpi="4.4899998"
         inkscape:export-filename="Z:\Eigene Bilder\Unisens_16px.png"
         id="path4658"
         d="M 140,-117.13782 L 299.99999,-117.13782"
         style="fill:none;fill-rule:evenodd;stroke:#e6e6e6;stroke-width:1px;stroke-linecap:butt;stroke-linejoin:miter;stroke-opacity:1" />
      <path
         inkscape:export-ydpi="4.4899998"
         inkscape:export-xdpi="4.4899998"
         inkscape:export-filename="Z:\Eigene Bilder\Unisens_16px.png"
         id="path4660"
         d="M 140,-107.13782 L 299.99999,-107.13782"
         style="fill:none;fill-rule:evenodd;stroke:#e6e6e6;stroke-width:1px;stroke-linecap:butt;stroke-linejoin:miter;stroke-opacity:1" />
      <path
         inkscape:export-ydpi="4.4899998"
         inkscape:export-xdpi="4.4899998"
         inkscape:export-filename="Z:\Eigene Bilder\Unisens_16px.png"
         id="path4662"
         d="M 140,-87.13782 L 299.99999,-87.13782"
         style="fill:none;fill-rule:evenodd;stroke:#e6e6e6;stroke-width:1px;stroke-linecap:butt;stroke-linejoin:miter;stroke-opacity:1" />
      <path
         inkscape:export-ydpi="4.4899998"
         inkscape:export-xdpi="4.4899998"
         inkscape:export-filename="Z:\Eigene Bilder\Unisens_16px.png"
         id="path4664"
         d="M 140,-77.13782 L 299.99999,-77.13782"
         style="fill:none;fill-rule:evenodd;stroke:#e6e6e6;stroke-width:1px;stroke-linecap:butt;stroke-linejoin:miter;stroke-opacity:1" />
      <path
         inkscape:export-ydpi="4.4899998"
         inkscape:export-xdpi="4.4899998"
         inkscape:export-filename="Z:\Eigene Bilder\Unisens_16px.png"
         id="path4666"
         d="M 140,-67.13782 L 299.99999,-67.13782"
         style="fill:none;fill-rule:evenodd;stroke:#e6e6e6;stroke-width:1px;stroke-linecap:butt;stroke-linejoin:miter;stroke-opacity:1" />
      <path
         inkscape:export-ydpi="4.4899998"
         inkscape:export-xdpi="4.4899998"
         inkscape:export-filename="Z:\Eigene Bilder\Unisens_16px.png"
         id="path4668"
         d="M 140,-57.13782 L 299.99999,-57.13782"
         style="fill:none;fill-rule:evenodd;stroke:#e6e6e6;stroke-width:1px;stroke-linecap:butt;stroke-linejoin:miter;stroke-opacity:1" />
      <g
         transform="translate(-160,-619.5)"
         inkscape:export-ydpi="4.4899998"
         inkscape:export-xdpi="4.4899998"
         inkscape:export-filename="Z:\Eigene Bilder\Unisens_16px.png"
         id="g4670">
        <path
           style="fill:none;fill-rule:evenodd;stroke:#c2c2c2;stroke-width:1px;stroke-linecap:butt;stroke-linejoin:miter;stroke-opacity:1"
           d="M 400,582.36218 L 400,262.36218"
           id="path4672" />
        <path
           style="fill:none;fill-rule:evenodd;stroke:#c2c2c2;stroke-width:1px;stroke-linecap:butt;stroke-linejoin:miter;stroke-opacity:1"
           d="M 350,582.36218 L 350,262.36218"
           id="path4674" />
        <path
           style="fill:none;fill-rule:evenodd;stroke:#c2c2c2;stroke-width:1px;stroke-linecap:butt;stroke-linejoin:miter;stroke-opacity:1"
           d="M 450.09072,582.36218 L 450.09072,262.36218"
           id="path4676" />
        <path
           style="fill:none;fill-rule:evenodd;stroke:#c2c2c2;stroke-width:1px;stroke-linecap:butt;stroke-linejoin:miter;stroke-opacity:1"
           d="M 300,272.36218 L 460,272.36218"
           id="path4678" />
        <path
           style="fill:none;fill-rule:evenodd;stroke:#c2c2c2;stroke-width:1px;stroke-linecap:butt;stroke-linejoin:miter;stroke-opacity:1"
           d="M 300,322.36218 L 460,322.36218"
           id="path4680" />
        <path
           style="fill:none;fill-rule:evenodd;stroke:#c2c2c2;stroke-width:1px;stroke-linecap:butt;stroke-linejoin:miter;stroke-opacity:1"
           d="M 300,372.36218 L 460,372.36218"
           id="path4682" />
        <path
           style="fill:none;fill-rule:evenodd;stroke:#c2c2c2;stroke-width:1px;stroke-linecap:butt;stroke-linejoin:miter;stroke-opacity:1"
           d="M 300,422.36218 L 460,422.36218"
           id="path4684" />
        <path
           style="fill:none;fill-rule:evenodd;stroke:#c2c2c2;stroke-width:1px;stroke-linecap:butt;stroke-linejoin:miter;stroke-opacity:1"
           d="M 300,472.36218 L 460,472.36218"
           id="path4686" />
        <path
           style="fill:none;fill-rule:evenodd;stroke:#c2c2c2;stroke-width:1px;stroke-linecap:butt;stroke-linejoin:miter;stroke-opacity:1"
           d="M 300,522.36218 L 460,522.36218"
           id="path4688" />
        <path
           style="fill:none;fill-rule:evenodd;stroke:#c2c2c2;stroke-width:1px;stroke-linecap:butt;stroke-linejoin:miter;stroke-opacity:1"
           d="M 300,572.36218 L 460,572.36218"
           id="path4690" />
      </g>
    </g>
    <path
       style="opacity:0.8;fill:#0c3661;fill-opacity:1;fill-rule:evenodd;stroke:none;stroke-width:6;stroke-linecap:round;stroke-linejoin:miter;stroke-miterlimit:4;stroke-dasharray:none;stroke-opacity:1"
       d="M 208.22768,199.51786 L 208.22768,519.51786 L 368.22768,519.51786 L 368.22768,456.01786 C 367.60889,456.26977 366.94229,456.42891 366.22768,456.42411 C 363.90798,456.40841 362.20391,454.84347 361.04018,453.14286 C 359.87638,451.44226 358.95689,449.32812 358.10268,446.79911 C 354.68548,436.68271 352.16655,419.44589 349.60268,401.14286 C 347.03878,382.83986 344.5032,363.59491 341.50893,350.36161 C 340.01183,343.74501 338.29408,338.56539 336.85268,336.23661 C 336.13208,335.07223 335.58412,334.83419 335.69643,334.86161 C 335.62699,334.90906 335.50305,335.04375 335.13393,335.42411 C 334.16633,336.42129 332.5673,339.43623 331.13393,343.70536 C 329.70053,347.9745 328.28577,353.50811 326.91518,359.86161 C 324.17398,372.56851 321.60613,388.53313 319.00893,404.48661 C 316.41173,420.44011 313.796,436.41544 310.97768,449.29911 C 309.56848,455.74101 308.11761,461.40453 306.54018,465.98661 C 304.96268,470.56861 303.4311,474.06019 301.00893,476.39286 C 298.62013,478.69336 295.7145,480.03245 292.88393,479.33036 C 290.05323,478.62836 288.1246,476.32018 286.60268,473.51786 C 283.55878,467.91316 281.59584,459.19559 279.94643,447.98661 C 276.64755,425.56841 275.03836,393.4559 273.66518,361.17411 C 272.29189,328.89242 271.12063,296.46827 268.82143,273.92411 C 267.67187,262.65205 266.18892,253.76056 264.47768,249.04911 C 263.70556,246.92326 262.90167,245.96157 262.72768,245.76786 C 262.61789,245.82338 262.42138,245.92457 261.97768,246.39286 C 258.23044,250.34743 254.01073,260.1257 250.29018,272.67411 C 246.56973,285.22253 243.08733,300.58502 239.72768,316.11161 C 236.36803,331.6382 233.10908,347.34095 229.72768,360.76786 C 226.34637,374.19486 222.96841,385.23218 218.79018,391.98661 C 218.25105,392.98621 217.23158,393.58329 216.13393,393.54911 C 215.03627,393.51491 214.05256,392.86167 213.57143,391.83036 C 213.0903,390.79896 213.20227,389.56728 213.85268,388.64286 C 217.16595,383.28686 220.7098,372.43009 224.04018,359.20536 C 227.37058,345.98066 230.61043,330.29822 233.97768,314.73661 C 237.34501,299.17499 240.84882,283.76458 244.66518,270.89286 C 248.48154,258.02114 252.36467,247.74196 257.75893,242.04911 C 258.74669,241.00666 259.81801,240.1895 261.16518,239.76786 C 261.83872,239.55705 262.59957,239.44339 263.32143,239.51786 C 264.04323,239.59233 264.74284,239.83684 265.35268,240.17411 C 267.79172,241.52324 268.93718,243.91085 270.00893,246.86161 C 272.15236,252.7631 273.55753,261.79432 274.72768,273.26786 C 277.06785,296.21493 278.19954,328.64313 279.57143,360.89286 C 280.94333,393.14266 282.54622,425.24737 285.75893,447.08036 C 287.36533,457.99686 289.51276,466.40831 291.72768,470.48661 C 292.83518,472.52571 293.79541,473.19193 294.22768,473.29911 C 294.65988,473.40631 295.41293,473.3985 297.00893,471.86161 C 297.92993,470.97461 299.53497,468.08349 300.97768,463.89286 C 302.42038,459.70226 303.81744,454.19673 305.19643,447.89286 C 307.95433,435.28506 310.53713,419.3754 313.13393,403.42411 C 315.73073,387.47271 318.36679,371.49036 321.16518,358.51786 C 322.56448,352.03166 323.98078,346.31856 325.54018,341.67411 C 327.09958,337.02967 328.66991,333.4908 331.00893,331.08036 C 332.59603,329.44484 334.87091,328.35534 337.07143,328.89286 C 339.27173,329.43037 340.67652,331.04288 341.82143,332.89286 C 344.11143,336.59284 345.7319,342.06861 347.29018,348.95536 C 350.40668,362.72876 352.88822,382.00553 355.44643,400.26786 C 358.00463,418.53016 360.66318,435.88015 363.66518,444.76786 C 364.41578,446.98976 365.21002,448.65574 365.82143,449.54911 C 366.03979,449.86822 366.18948,450.00998 366.29018,450.11161 C 366.44185,449.99244 366.70153,449.79686 367.07143,449.29911 C 367.41289,448.8397 367.80461,448.15559 368.22768,447.36161 L 368.22768,199.51786 L 208.22768,199.51786 z M 368.22768,447.36161 L 368.22768,456.01786 C 369.61754,455.45204 370.76457,454.34504 371.72768,453.04911 C 373.11971,451.17632 374.35678,448.68936 375.66518,445.33036 C 382.34806,428.17418 387.07738,406.34636 391.79018,389.83036 C 394.14657,381.57235 396.55173,374.64326 398.88393,370.58036 C 400.05012,368.54894 401.20373,367.33536 401.94643,366.89286 C 402.68911,366.45038 402.85518,366.37521 403.79018,366.86161 C 406.24491,368.13824 409.31413,373.42951 411.57143,380.98661 C 413.82876,388.54383 415.59368,398.06371 417.29018,407.11161 C 418.98683,416.15942 420.58323,424.70476 422.82143,430.89286 C 423.94073,433.98685 425.14193,436.56166 427.16523,438.39286 C 429.18843,440.22408 432.59953,440.65096 435.13393,439.14286 C 439.17723,436.73678 442.12303,431.85746 446.60273,425.83036 C 451.08243,419.80327 456.66333,412.62011 464.00893,406.04911 C 478.70053,392.90699 490.27433,381.95241 525.19643,387.48661 C 526.81103,387.7441 528.32503,386.57976 528.57143,384.89286 C 528.81793,383.20595 527.71713,381.65036 526.10273,381.39286 C 489.65593,375.61708 475.83373,387.34561 460.16523,401.36161 C 452.33093,408.3696 446.48983,415.90496 441.94643,422.01786 C 437.40293,428.13063 433.74953,432.84366 432.19643,433.76786 C 431.24863,434.33184 431.63773,434.30571 431.00893,433.73661 C 430.38013,433.16752 429.27973,431.35456 428.32143,428.70536 C 426.40493,423.40673 424.76533,414.95721 423.07143,405.92411 C 421.37763,396.89111 419.61023,387.25531 417.19643,379.17411 C 414.78255,371.09281 411.98873,364.24421 406.44643,361.36161 C 404.07021,360.1257 401.17423,360.22776 399.00893,361.51786 C 396.84361,362.80795 395.24238,364.86296 393.79018,367.39286 C 390.88556,372.45288 388.53783,379.65626 386.13393,388.08036 C 381.32633,404.92856 376.58353,426.58991 370.19643,442.98661 C 369.49418,444.7896 368.83436,446.22305 368.22768,447.36161 z M 366.29018,450.11161 C 366.10111,450.26016 366.0711,450.23533 366.25893,450.23661 C 366.47648,450.23811 366.47144,450.29455 366.29018,450.11161 z "
       id="path4692"
       sodipodi:nodetypes="ccccsssssssssssssssssssscsssscsscsssssssssssssssssssssssssscscccccssssssssssssscscssssssssssssccsc"
       inkscape:export-filename="Z:\Projekte\Unisens\Logo\Logo_v2.png"
       inkscape:export-xdpi="66.18"
       inkscape:export-ydpi="66.18" />
  </g>
</svg>
